<svg t="1707137030833" class="icon" viewBox="0 0 1024 1024" version="1.1" xmlns="http://www.w3.org/2000/svg" p-id="7474"
     width="40" height="40">
    <path d="M849.96 618.373v221.721c0 15.993-49.996 48.754-90.831 69.715-41.612-20.805-95.49-55.585-95.49-72.199V616.044c0-19.564 11.49-36.178 27.327-42.078h119.09c22.048 0 39.904 19.875 39.904 44.407zM415.212 121.363v340.966c0 17.235-13.974 31.053-31.053 31.053h-15.527c-17.079 0-31.053-13.818-31.053-31.053V121.363c0-17.08 13.974-31.053 31.053-31.053h15.527c17.078 0 31.053 13.973 31.053 31.053zM787.853 121.363v340.966c0 17.235-13.974 31.053-31.053 31.053h-15.527c-17.079 0-31.053-13.818-31.053-31.053V121.363c0-17.08 13.974-31.053 31.053-31.053H756.8c17.079 0 31.053 13.973 31.053 31.053z"
          fill="#E27E47" p-id="7475"></path>
    <path d="M741.273 136.89v309.937h-62.107V136.89h62.107M756.8 90.309h-93.16c-17.15 0-31.053 13.903-31.053 31.053v340.991c0 17.151 13.903 31.053 31.053 31.053h93.16c17.15 0 31.053-13.903 31.053-31.053v-340.99c0-17.15-13.903-31.054-31.053-31.054z"
          fill="#0F3944" p-id="7476"></path>
    <path d="M741.273 428.911h-62.107v145.116h62.107V428.911z" fill="#0F3944" p-id="7477"></path>
    <path d="M803.38 620.546v206.381c-10.743 9.318-34.862 25.704-65.435 41.397-13.361 6.823-22.577 10.704-27.892 12.671-22.653-8.03-74.289-37.343-92.988-53.91l0.094-206.54H803.38m6.676-46.579H610.383c-22.048 0-39.904 19.875-39.904 44.407v221.721c0 24.533 117.693 88.658 139.74 88.658 7.763 0 27.016-7.763 48.91-18.943 40.835-20.961 90.831-53.722 90.831-69.715V618.373c0-24.532-17.856-44.407-39.904-44.407zM368.632 136.89v309.913h-62.107V136.89h62.107m15.527-46.581h-93.16c-17.079 0-31.053 13.973-31.053 31.053v340.966c0 17.235 13.974 31.053 31.053 31.053h93.16c17.079 0 31.053-13.818 31.053-31.053V121.363c0-17.08-13.974-31.054-31.053-31.054z"
          fill="#0F3944" p-id="7478"></path>
    <path d="M368.632 428.911h-62.107v145.116h62.107V428.911z" fill="#0F3944" p-id="7479"></path>
    <path d="M492.846 571.638H166.785v62.106h326.061v-62.106z" fill="#0F3944" p-id="7480"></path>
    <path d="M469.556 571.638c-12.863 0-23.29 10.428-23.29 23.29v310.535c0 12.862 10.427 23.29 23.29 23.29s23.29-10.427 23.29-23.29V594.928c0-12.863-10.428-23.29-23.29-23.29zM283.235 571.638c-12.863 0-23.29 10.428-23.29 23.29v310.535c0 12.862 10.427 23.29 23.29 23.29s23.29-10.427 23.29-23.29V594.928c0-12.863-10.427-23.29-23.29-23.29zM190.075 571.638c-12.863 0-23.29 10.428-23.29 23.29v310.535c0 12.862 10.427 23.29 23.29 23.29s23.29-10.427 23.29-23.29V594.928c0-12.863-10.428-23.29-23.29-23.29zM376.395 571.638c-12.863 0-23.29 10.428-23.29 23.29v310.535c0 12.862 10.427 23.29 23.29 23.29s23.29-10.427 23.29-23.29V594.928c0-12.863-10.427-23.29-23.29-23.29z"
          fill="#0F3944" p-id="7481"></path>
</svg>