<svg t="1707742678064" class="icon" viewBox="0 0 1024 1024" version="1.1" xmlns="http://www.w3.org/2000/svg" p-id="14609" width="48" height="48"><path d="M812.8 274.7V155.5c0-50.5-41.1-91.5-91.7-91.5H302.9c-50.6 0-91.7 41.1-91.7 91.5v119.2H64v239.4h59.7v383c0 34.8 26.7 62.9 59.7 62.9h657.1c33 0 59.7-28.1 59.7-62.9v-383H960V274.7H812.8zM275.2 155.5c0-15.3 12.4-27.7 27.7-27.7H721c15.3 0 27.7 12.4 27.7 27.7v119.2H275.2V155.5z m561.1 740.7H187.7V514.1H393v88c0 32.8 26.6 59.4 59.5 59.4h119c32.9 0 59.5-26.5 59.5-59.4v-88h205.3v382.1zM896 433.4v16.8H631V424c0-11-3-21.3-8.2-30.1-10.3-17.5-29.4-29.2-51.3-29.2h-119c-21.8 0-40.9 11.7-51.3 29.2-5.2 8.8-8.2 19.1-8.2 30.1v26.2H128V338.6h768v94.8z" fill="#2c2c2c" p-id="14610"></path></svg>
